<svg class="icon" style="width: 1em;height: 1em;vertical-align: middle;fill: currentColor;overflow: hidden;" viewBox="0 0 1024 1024" version="1.1" xmlns="http://www.w3.org/2000/svg" p-id="743"><path d="M883.25 243.87499971c-15.00000029-3.75000029-29.99999971 5.625-33.75 20.62500029l-20.62500029 76.87500029C763.25000029 223.25000029 637.62499971 146.375 498.87500029 146.375 294.49999971 146.375 127.62500029 309.5 127.62500029 512s166.87500029 365.625 371.25 365.625c157.5 0 298.125-97.49999971 350.62499971-241.875 5.625-15.00000029-1.87499971-29.99999971-16.875-35.62499971-15.00000029-5.625-29.99999971 1.87499971-35.62499971 16.875-45 121.87500029-164.99999971 204.37499971-298.125 204.37499971C324.50000029 821.375 183.87500029 682.62499971 183.87500029 512S326.375 202.625 498.87500029 202.625c127.50000029 0 243.74999971 76.87500029 290.62499942 191.25l-112.5-31.87500029c-15.00000029-3.75000029-29.99999971 5.625-33.75 20.62500029-3.75000029 15.00000029 5.625 29.99999971 20.62500029 33.75l163.125 43.12500029c1.87499971 0 5.625 1.87499971 7.49999971 1.87499971 5.625 0 9.37500029-1.87499971 15.00000029-3.75000029 5.625-3.75000029 11.25-9.37500029 13.12499971-16.875l43.12500029-163.125c0-15.00000029-7.49999971-29.99999971-22.5-33.75z" fill="#666666" p-id="744"></path></svg>
