<svg class="icon" style="width: 1em;height: 1em;vertical-align: middle;fill: currentColor;overflow: hidden;"
     viewBox="0 0 1024 1024" version="1.1" xmlns="http://www.w3.org/2000/svg" p-id="743">
    <path
        d="M833.86580853 533.98713211l49.53308862 3.32536789C870.34558862 731.87132358 707.20404432 884.24264715 512 884.24264715 306.72058862 884.24264715 139.75735285 717.27941138 139.75735285 512c0-193.81433862 151.22977927-356.85661789 344.34926504-371.20036789l3.67279349 49.48345651C320.46875 202.69117642 189.38970568 343.99448496 189.38970568 512 189.38970568 689.88235284 334.11764716 834.61029432 512 834.61029432c169.19669146 0 310.54963211-132.02205854 321.86580853-300.62316221zM933.875 462.31801504v24.81617642l-24.86580853 0.84375H537.65992642V90.07536789L562.52573496 90.125C767.30882358 90.57169146 933.875 257.58455853 933.875 462.31801504z m-50.32720568-23.97242642c-11.06801504-157.33455854-137.77941138-285.03860284-296.25551505-297.54595651v297.54595651h296.25551505z"
        p-id="744"></path>
</svg>

